<svg width="170" height="33" viewBox="0 0 170 33" fill="none" xmlns="http://www.w3.org/2000/svg">
<path fill-rule="evenodd" clip-rule="evenodd" d="M74.8777 0.472656V9.60484C74.3535 8.87084 73.6322 8.27664 72.7107 7.82861C71.8083 7.3774 70.7915 7.1518 69.6539 7.1518C67.8999 7.1518 66.3842 7.54263 65.1037 8.3243C63.8263 9.10597 62.8318 10.1959 62.12 11.594C61.4337 12.9921 61.0905 14.5904 61.0905 16.392C61.0905 18.1937 61.4337 19.8269 62.12 21.2218C62.8318 22.5977 63.8263 23.6749 65.1037 24.4566C66.4065 25.2382 67.9349 25.6291 69.6889 25.6291C70.7787 25.6291 71.786 25.4066 72.7107 24.9554C73.6576 24.5042 74.3789 23.8878 74.8777 23.1061V25.3463H79.2468V0.472656H74.8777ZM73.8451 20.3703C72.9681 21.3648 71.7956 21.8637 70.3275 21.8637C68.8595 21.8637 67.7093 21.3648 66.81 20.3703C65.9362 19.3757 65.4977 18.0475 65.4977 16.392C65.4977 14.7365 65.9362 13.4052 66.81 12.4106C67.7093 11.416 68.8849 10.9203 70.3275 10.9203C71.7701 10.9203 72.9681 11.416 73.8451 12.4106C74.722 13.4083 75.1605 14.7334 75.1605 16.392C75.1605 18.0507 74.722 19.3757 73.8451 20.3703ZM115.499 11.594C114.835 10.199 113.875 9.10915 112.62 8.32748C111.365 7.54581 109.884 7.15498 108.178 7.15498C107.018 7.15498 105.963 7.3774 105.017 7.82861C104.092 8.27982 103.358 8.89626 102.814 9.67793V7.43778H98.4772V32.5942H102.811V23.3921C103.285 24.0784 103.974 24.6218 104.874 25.0253C105.773 25.4289 106.78 25.6291 107.892 25.6291C109.624 25.6291 111.14 25.2382 112.442 24.4566C113.745 23.6749 114.749 22.585 115.461 21.1901C116.173 19.792 116.529 18.1905 116.529 16.392C116.529 14.5935 116.185 12.9921 115.499 11.594ZM110.879 20.3703C110.002 21.3648 108.83 21.8637 107.362 21.8637C105.894 21.8637 104.743 21.3648 103.844 20.3703C102.967 19.3757 102.529 18.0475 102.529 16.392C102.529 14.7365 102.967 13.4052 103.844 12.4106C104.743 11.416 105.916 10.9203 107.362 10.9203C108.807 10.9203 110.002 11.416 110.879 12.4106C111.756 13.4083 112.195 14.7334 112.195 16.392C112.195 18.0507 111.756 19.3757 110.879 20.3703ZM165.733 19.3757C165.497 20.2273 165.024 20.8787 164.312 21.3299C163.6 21.7811 162.688 22.0067 161.576 22.0067C160.556 22.0067 159.67 21.7684 158.91 21.2949C158.176 20.8215 157.608 20.1574 157.207 19.3058C156.924 18.6925 156.743 18.0189 156.658 17.2785H169.819C169.866 16.8051 169.892 16.3094 169.892 15.7883C169.892 14.2949 169.571 12.8968 168.932 11.594C168.316 10.2689 167.344 9.2013 166.018 8.39739C164.716 7.56805 163.117 7.15498 161.22 7.15498C159.323 7.15498 157.751 7.58076 156.422 8.43234C155.12 9.28391 154.125 10.4119 153.439 11.8069C152.775 13.1827 152.444 14.6857 152.444 16.3221C152.444 17.9585 152.8 19.4488 153.512 20.8691C154.246 22.2895 155.298 23.4398 156.673 24.3168C158.046 25.1906 159.679 25.6291 161.576 25.6291C163.778 25.6291 165.65 25.0603 167.191 23.9227C168.729 22.7884 169.666 21.2727 169.997 19.3757H165.733ZM157.776 11.8768C158.558 10.9076 159.705 10.4215 161.22 10.4215C162.476 10.4215 163.496 10.7901 164.277 11.5241C165.059 12.2581 165.485 13.2177 165.555 14.3997H156.746C156.924 13.3511 157.268 12.5091 157.776 11.8768ZM148.612 7.43778L144.491 19.8015L140.331 7.43778H135.892L142.429 25.3463H146.515L153.089 7.43778H148.612ZM52.2062 0.472656H47.8021L38.2441 25.3463H43.074L45.2029 19.5537H54.8054L56.9343 25.3463H61.7991L52.2062 0.472656ZM46.6646 15.5754L50.0041 6.47817L53.3469 15.5754H46.6646ZM123.643 7.43142V0.472656H119.271V7.43778H116.43V11.0983H119.271V19.0929C119.271 21.0598 119.852 22.5977 121.012 23.713C122.175 24.8029 123.748 25.3463 125.74 25.3463H128.543V21.6858H126.236C125.407 21.6858 124.768 21.4506 124.317 20.9772C123.869 20.5006 123.643 19.8142 123.643 18.915V11.1205H130.335V25.3463H134.704V7.43778L123.643 7.43142ZM130.335 0.472656V4.62885H134.704V0.472656H130.335ZM95.6841 10.3516C95.0455 9.33475 94.1335 8.55308 92.9483 8.00655C91.7885 7.43778 90.4508 7.15498 88.9351 7.15498C87.4194 7.15498 86.0785 7.43778 84.9187 8.00655C83.7589 8.54991 82.8342 9.30933 82.1479 10.2817C81.4838 11.2286 81.1152 12.293 81.0453 13.4782H84.9537C84.9791 12.9349 85.1443 12.436 85.4525 11.988C85.7607 11.5114 86.1992 11.1332 86.768 10.8504C87.3368 10.5645 87.9882 10.4215 88.7222 10.4215C89.8597 10.4215 90.7463 10.6947 91.385 11.2381C92.0491 11.7846 92.3795 12.5059 92.3795 13.4083V14.6158H87.7626C85.748 14.6158 84.1243 15.1242 82.8946 16.1442C81.6617 17.1642 81.0453 18.5368 81.0453 20.2654C81.0453 21.2854 81.2932 22.2101 81.792 23.0362C82.2909 23.8433 82.9868 24.482 83.8892 24.9554C84.8138 25.4066 85.8529 25.6322 87.0159 25.6322C88.3409 25.6322 89.4911 25.3463 90.4603 24.7775C91.3913 24.25 92.03 23.5541 92.3795 22.693V25.3463H96.6787V13.8341C96.6787 12.5091 96.3482 11.3493 95.6841 10.3516ZM91.207 21.117C90.4508 21.9686 89.3958 22.3975 88.0454 22.3975C87.216 22.3975 86.5424 22.1846 86.0213 21.7557C85.5224 21.3299 85.2746 20.7738 85.2746 20.0875C85.2746 19.3058 85.5574 18.6767 86.1262 18.2032C86.6949 17.7298 87.4417 17.4914 88.3663 17.4914H92.3795V17.7774H92.3827C92.3827 19.1501 91.9887 20.2654 91.207 21.117Z" fill="#161616"/>
<path d="M17.5107 0.472656C21.4209 0.472656 24.5949 3.64664 24.5949 7.55679V9.47522H17.5107V0.472656Z" fill="#161616"/>
<path d="M17.5107 0.472656C12.9112 0.472656 8.6298 2.82 6.15612 6.6974L0 16.3426H7.3836L17.5107 0.472656Z" fill="#161616"/>
<path d="M14.4678 25.3447C10.5576 25.3447 7.38364 22.1707 7.38364 18.2606V16.3422H14.4678L14.4678 25.3447Z" fill="#161616"/>
<path d="M14.4678 25.3451C19.0673 25.3451 23.3487 22.9978 25.8224 19.1204L31.9785 9.47363H24.5949L14.4678 25.3435V25.3451Z" fill="#161616"/>
</svg>
